<svg version="1.2" xmlns="http://www.w3.org/2000/svg" viewBox="0 0 1000 1000" width="1000" height="1000">
	<title>card1-ai</title>
	<style>
		.s0 { fill: #92e3a9 } 
		.s1 { opacity: .7;fill: #ffffff } 
		.s2 { fill: none;stroke: #263238;stroke-linecap: round;stroke-linejoin: round;stroke-width: 1.4 } 
		.s3 { fill: none;stroke: #263238;stroke-width: 2 } 
		.s4 { fill: #d6d6d6 } 
		.s5 { fill: none;stroke: #263238;stroke-linecap: round;stroke-linejoin: round;stroke-width: 1.6 } 
		.s6 { fill: #263238;stroke: #263238;stroke-linecap: round;stroke-linejoin: round;stroke-width: 1.5 } 
		.s7 { fill: #263238;stroke: #263238;stroke-linecap: round;stroke-linejoin: round;stroke-width: 1.8 } 
		.s8 { fill: none;stroke: #263238;stroke-linecap: round;stroke-linejoin: round;stroke-width: 2 } 
		.s9 { opacity: .2;fill: #000000 } 
		.s10 { fill: #ffffff } 
		.s11 { fill: #b3b3b3 } 
		.s12 { fill: #92e3a9;stroke: #263238;stroke-linecap: round;stroke-linejoin: round;stroke-width: 2 } 
		.s13 { fill: #263238;stroke: #263238;stroke-linecap: round;stroke-linejoin: round;stroke-width: 2 } 
		.s14 { fill: #ffffff;stroke: #263238;stroke-linecap: round;stroke-linejoin: round;stroke-width: 2 } 
		.s15 { fill: none;stroke: #7d7d7d;stroke-linecap: round;stroke-linejoin: round;stroke-width: 2 } 
		.s16 { fill: none;stroke: #263238;stroke-linecap: round;stroke-linejoin: round;stroke-width: 6 } 
		.s17 { fill: #263238 } 
		.s18 { fill: #ffffff;stroke: #263238;stroke-linecap: round;stroke-linejoin: round;stroke-width: 1.4 } 
		.s19 { fill: #263238;stroke: #263238;stroke-linecap: round;stroke-linejoin: round;stroke-width: 1.4 } 
		.s20 { fill: #ffffff;stroke: #ffffff;stroke-linecap: round;stroke-linejoin: round;stroke-width: 6 } 
		.s21 { fill: #a3a3a3;stroke: #263238;stroke-width: 2 } 
		.s22 { fill: #a3a3a3;stroke: #263238;stroke-linecap: round;stroke-linejoin: round;stroke-width: 2 } 
		.s23 { fill: none;stroke: #263238;stroke-linecap: round;stroke-linejoin: round } 
		.s24 { fill: #a6a6a6;stroke: #263238 } 
		.s25 { fill: #808080;stroke: #263238 } 
		.s26 { fill: none;stroke: #263238;stroke-linecap: round;stroke-width: 4 } 
	</style>
	<g id="Background Simple">
		<g id="&lt;Group&gt;">
			<path id="&lt;Path&gt;" class="s0" d="m906.8 270.2c106.5 160.6 82.1 377.7-52.9 469.6-135 91.9-178.8 68.7-341.5 73.3-162.7 4.7-241.6 99.9-357.6 35.3-116-64.6-153.9-206.4-88-345.7 65.8-139.4 142.5-313.3 294.4-400.9q152-87.7 306.8-32.6 132.3 40.3 238.8 201z"/>
			<path id="&lt;Path&gt;" class="s1" d="m906.8 270.2c106.5 160.6 82.1 377.7-52.9 469.6-135 91.9-178.8 68.7-341.5 73.3-162.7 4.7-241.6 99.9-357.6 35.3-116-64.6-153.9-206.4-88-345.7 65.8-139.4 142.5-313.3 294.4-400.9q152-87.7 306.8-32.6 132.3 40.3 238.8 201z"/>
		</g>
		<g id="&lt;Group&gt;">
		</g>
	</g>
	<g id="Plants">
		<g id="&lt;Group&gt;">
			<path id="&lt;Path&gt;" class="s0" d="m59.6 451.1c-4.7-5.3-4.5-13.7 1.5-17.9 8.4-6 25.8 0.3 33.1 5.7 0.6 0.5 9.7 9 9.5 9.1 0 0-15.7 8.8-23.7 9.3-6.8 0.5-15.6-0.7-20.4-6.2z"/>
			<path id="&lt;Path&gt;" class="s0" d="m88.5 499.9c-6-3.9-8-12-3.3-17.7 6.5-7.9 24.9-6.5 33.4-3.2 0.6 0.3 8 4.2 10.6 5.7q-0.1-0.1-0.2-0.3c-6.7-7.1-12.2-14.8-17-22.3-4.9-7.5-8.8-15-12.3-22-3.4-6.9-6.2-13.5-8.5-19.4-1.3-3.2-2.4-6.1-3.4-8.8q0 0-0.1 0.2c-0.1 0.1-8.7-8.8-9.2-9.5-5.5-7.3-11.9-24.6-6.1-33 4.2-6 12.6-6.3 18-1.7 5.5 4.7 6.8 13.5 6.4 20.3-0.4 7-7 19.9-8.7 23.1 1.1 2.9 2.3 5.9 3.7 9.2 2.5 5.8 5.3 12.3 8.9 19.1 1 1.9 2.1 3.8 3.1 5.7-1.1-3.6-2.5-8.5-2.6-9-1.5-9 0.8-27.3 9.8-32.1 6.6-3.4 14.1 0.2 16.8 6.8 2.7 6.7-0.2 15.1-3.7 21-3.7 6.1-15.8 14.7-18.5 16.6 2.4 4.1 4.9 8.3 7.8 12.6 4.9 7.3 10.5 14.8 17.3 21.7 0.3 0.4 0.8 0.7 1.1 1.1-0.8-1.7-4.7-11.1-4.9-11.8-2.6-8.8-2.3-27.3 6.2-33 6.1-4.1 14-1.4 17.4 4.9 3.4 6.4 1.5 15.1-1.4 21.3-3.3 7.1-16.5 18.4-17 18.8 6.4 6.4 13.4 12.5 20.9 18.2 5.4 4.2 11.1 8.2 16.8 12.2-1.1-2.2-4.7-11-4.9-11.6-2.5-8.8-2.3-27.3 6.2-33 6.1-4.1 14-1.4 17.4 4.9 3.4 6.3 1.5 15-1.4 21.2-3.2 7-15.8 17.9-16.8 18.8q3.8 2.7 7.8 5.4c8.5 5.8 17.1 11.6 25.4 17.6 2.9 2.1 5.6 4.3 8.4 6.4-1.5-3.3-4-9.4-4.1-10-2.6-8.8-2.3-27.2 6.2-33 6.1-4.1 14-1.3 17.3 4.9 3.5 6.4 1.5 15.1-1.3 21.3-2.9 6.2-13.3 15.6-16.2 18.2 4.5 3.6 9 7.3 13.2 11.1 1.8 1.7 3.8 3.3 5.4 5q2.5 2.6 5 5.1c3.2 3.5 6.3 6.8 9.2 10.2 1.5 1.7 2.9 3.3 4.4 5-2-3.1-5.1-8.2-5.3-8.7-3.8-8.3-6.4-26.6 1.2-33.5 5.4-5 13.6-3.5 17.9 2.2q0.8 1.1 1.4 2.3c7 4.1 13.5 11.9 16.2 17.3 0.3 0.5 2.7 7.1 3.8 10.4-0.3-2.9-0.6-5.8-0.9-8.8-0.5-4.4-1.2-9-1.8-13.4q-0.6-3.5-1.2-7c-0.4-2.4-1-4.6-1.5-6.9-0.8-3.5-1.8-6.9-2.8-10.4-4.4 0.8-17.4 2.8-23.8 1.2-6.6-1.7-14.6-5.6-17.4-12.3-2.8-6.5 0-14.4 7-16.6 9.8-3 24.4 8.3 29.6 15.8 0.2 0.2 1.2 1.9 2.3 4-1.1-3.4-2.1-6.8-3.3-10.1-3.4-9.6-7.2-19.2-10.9-28.9q-1.1-3-2.2-6.1c-3.7 0.7-17.8 3-24.5 1.3-6.7-1.6-14.7-5.6-17.5-12.2-2.8-6.5 0-14.4 7.1-16.6 9.8-3.1 24.3 8.3 29.6 15.8 0.2 0.2 1.3 2.3 2.6 4.5-2-5.2-3.8-10.5-5.5-15.8-3-9.3-5.4-18.6-7-27.8-1.3 0.2-17.8 3.3-25.3 1.4-6.6-1.6-14.6-5.6-17.4-12.2-2.8-6.6 0-14.4 7-16.6 9.8-3.1 24.4 8.3 29.7 15.7 0.3 0.6 4.4 7.9 5.7 10.6q0-0.1 0-0.3c-1.7-9.7-2-19.1-1.9-28.1 0.1-8.9 0.9-17.3 1.9-25 0.9-7.7 2.3-14.7 3.5-20.9 0.7-3.4 1.4-6.4 2.1-9.3q0 0.1-0.2 0.2c-0.1 0-2.4-12.2-2.4-13-0.6-9.1 3.6-27.1 13.1-30.9 6.9-2.7 14 1.7 15.9 8.5 2 7-1.7 15-5.8 20.5-4.3 5.6-16.9 12.7-20 14.5-0.7 2.9-1.4 6.1-2 9.6-1.1 6.2-2.3 13.2-3.1 20.9-0.2 2.1-0.4 4.3-0.5 6.4 1-3.5 2.5-8.4 2.7-8.8 3.7-8.4 15.7-22.4 25.9-21.4 7.4 0.7 11.7 7.9 10.2 14.9-1.4 7.1-8.4 12.5-14.6 15.5-6.5 3-21.3 3.5-24.6 3.6-0.3 4.7-0.5 9.6-0.4 14.8 0 8.8 0.6 18.1 2.4 27.6 0.1 0.5 0.3 1.1 0.4 1.6 0.2-1.9 2.1-11.9 2.3-12.6 2.8-8.7 13.2-24 23.4-24.1 7.4 0 12.5 6.6 11.8 13.7-0.7 7.2-7.1 13.4-12.9 17-6.7 4.1-23.9 6.3-24.5 6.4 1.8 8.8 4.3 17.7 7.3 26.6 2.3 6.5 4.8 13 7.3 19.4 0.4-2.4 2.2-11.7 2.4-12.3 2.7-8.8 13.1-24 23.4-24.1 7.3-0.1 12.4 6.6 11.8 13.6-0.7 7.2-7.1 13.4-12.9 17-6.5 4.1-23.1 6.2-24.4 6.4q1.7 4.4 3.5 8.8c3.9 9.6 7.9 19.1 11.5 28.7 1.2 3.3 2.3 6.6 3.5 10 0.6-3.6 1.8-10.1 2-10.6 2.7-8.8 13.2-24 23.4-24.1 7.4-0.1 12.5 6.6 11.8 13.6-0.7 7.2-7.1 13.4-12.9 17-5.8 3.6-19.6 5.7-23.6 6.3 1.9 5.5 3.6 11 5 16.5 0.6 2.4 1.3 4.8 1.7 7.2q0.7 3.5 1.4 6.9c0.7 4.8 1.5 9.2 2.1 13.7 0.3 2.2 0.5 4.4 0.8 6.6 0.1-3.8 0.3-9.6 0.4-10.2 1.4-9 9.4-25.7 19.5-27.3 7.3-1.2 13.3 4.6 13.7 11.7 0.4 7.2-5 14.3-10.2 18.7-5.7 4.9-21.1 9.4-23 10 0.6 5.4 1.2 10.6 1.7 15.5 1 10.2 1.6 19.3 2 27l-6.5 3.4c-0.3-8.1-0.7-18.3-1.6-29.9-0.3-4.4-0.7-9.1-1.2-14-1.9 0.1-16.9 0.5-24.2-2.1-3.7 5.8-8.5 11.4-9.3 12.4 3.5 4.1 6.9 8.1 10 11.9 7.9 9.8 14.4 18.5 19.4 25.3l-6 3.2c-4.7-6.8-10.8-15.2-18.2-24.7-2.7-3.5-5.6-7.2-8.7-11-1.6 1.2-14.8 10.4-22.2 11.8-6.7 1.3-15.6 1-21-3.8-5.2-4.8-6-13.1-0.5-18.1 7.6-6.8 25.6-2.6 33.5 2 0.5 0.3 6.1 4.4 8.9 6.6-1.8-2.3-3.7-4.6-5.6-6.9-2.9-3.4-5.9-6.8-8.9-10.2q-2.4-2.6-4.9-5.2c-1.6-1.7-3.3-3.2-5-4.9-2.6-2.4-5.3-4.8-8.1-7.1-3.2 3-13 11.9-19.2 14.1-6.4 2.3-15.3 3.4-21.3-0.6-5.9-3.9-8-12-3.3-17.7 6.5-8 24.9-6.6 33.4-3.2 0.3 0.1 2 1 4.1 2.1-2.8-2.3-5.5-4.5-8.4-6.6-8-6.1-16.5-12.1-24.9-18.1q-2.6-1.9-5.2-3.8c-2.8 2.6-13.2 12.2-19.8 14.6-6.4 2.2-15.2 3.3-21.3-0.6-5.9-3.9-7.9-12.1-3.3-17.8 6.5-7.9 24.9-6.5 33.5-3.2 0.3 0.2 2.3 1.2 4.6 2.4-4.5-3.3-9-6.7-13.3-10.2-7.6-6.1-14.7-12.5-21.2-19.3-0.9 1-13 12.6-20.2 15.1-6.5 2.3-15.3 3.4-21.3-0.6z"/>
			<path id="&lt;Path&gt;" class="s0" d="m217.8 370.8c-5.9-3.4-12.6-9.3-13.6-16.5-0.9-7 3.9-13.9 11.2-14.1 10.3-0.4 21.3 14.4 24.4 23 0.3 0.8 3.2 12.9 3 12.9 0 0-18-1.4-25-5.3z"/>
		</g>
		<g id="&lt;Group&gt;">
			<path id="&lt;Path&gt;" class="s0" d="m857.4 763c-6-0.5-17.7-7-17.7-7-0.1 0 6.6-6.4 7.1-6.7 5.5-4.1 18.4-8.7 24.6-4.3 4.5 3.2 4.6 9.4 1.1 13.4-3.5 4-10.1 4.9-15.1 4.6z"/>
			<path id="&lt;Path&gt;" class="s0" d="m835.2 795.1c-5.4-1.9-14.3-10.6-15-11.2-4.8 5-10.1 9.8-15.7 14.3-3.3 2.6-6.6 5.1-10 7.6 1.7-0.9 3.3-1.7 3.5-1.8 6.3-2.5 20-3.5 24.8 2.4 3.5 4.2 2 10.2-2.4 13.2-4.5 2.9-11 2.1-15.8 0.4-4.9-1.7-12.7-8.9-14.7-10.9q-1.9 1.5-3.9 2.9c-6.3 4.4-12.5 8.9-18.5 13.4-2.2 1.6-4.2 3.3-6.2 4.9 1.5-0.8 2.8-1.4 3-1.5 6.3-2.5 20-3.6 24.8 2.3 3.5 4.3 2 10.3-2.4 13.2-4.5 3-11.1 2.2-15.9 0.5-4.6-1.7-11.8-8.2-14.3-10.5-2 1.7-4 3.5-5.9 5.3-1.3 1.2-2.6 2.3-3.8 3.6q-1.8 2-3.6 3.9c-2.2 2.5-4.5 5.1-6.6 7.6-1.5 1.7-2.8 3.4-4.2 5.1 2.1-1.6 6.2-4.7 6.6-4.9 5.9-3.4 19.3-6.6 24.9-1.5 4.1 3.7 3.5 9.9-0.4 13.4-4 3.6-10.6 3.8-15.6 2.9-5.5-1.1-15.2-7.9-16.5-8.8-2.2 2.8-4.4 5.6-6.4 8.2-5.5 7-10 13.3-13.6 18.4l-4.4-2.4c3.7-5.1 8.5-11.6 14.4-18.8 2.3-2.9 4.8-5.9 7.4-8.9-0.6-0.7-4.1-4.9-6.9-9.2-5.4 1.9-16.6 1.6-18 1.6-0.3 3.6-0.7 7.1-0.9 10.4-0.6 8.6-1 16.2-1.1 22.2l-4.9-2.5c0.3-5.7 0.8-12.5 1.5-20.1 0.4-3.7 0.8-7.5 1.3-11.5-1.4-0.4-12.9-3.8-17.2-7.4-3.8-3.3-7.8-8.6-7.5-14 0.3-5.2 4.8-9.6 10.2-8.7 7.5 1.2 13.4 13.6 14.5 20.4 0 0.3 0.2 4.7 0.3 7.5 0.2-1.6 0.4-3.2 0.6-4.9 0.4-3.3 1-6.6 1.6-10.2q0.5-2.5 1-5.1c0.3-1.8 0.8-3.5 1.2-5.3 1.1-4.1 2.3-8.2 3.7-12.3-2.9-0.4-13.2-2-17.5-4.7-4.3-2.7-9.1-7.3-9.6-12.6-0.5-5.3 3.3-10.2 8.8-10.2 7.6 0.1 15.3 11.4 17.4 17.9 0.1 0.4 1 5.3 1.5 7.9 0.8-2.5 1.7-4.9 2.6-7.4 2.7-7.1 5.6-14.2 8.5-21.3q1.4-3.3 2.7-6.6c-1.1-0.1-13.4-1.7-18.2-4.7-4.3-2.7-9.1-7.3-9.6-12.6-0.5-5.3 3.3-10.2 8.8-10.2 7.6 0.1 15.3 11.4 17.4 17.9 0.1 0.5 1.5 7.4 1.7 9.2 1.9-4.8 3.8-9.6 5.4-14.4 2.3-6.6 4.2-13.3 5.5-19.8-0.5-0.1-13.3-1.7-18.2-4.8-4.4-2.7-9.1-7.3-9.6-12.6-0.5-5.3 3.3-10.2 8.8-10.2 7.6 0.1 15.3 11.4 17.3 17.9 0.2 0.5 1.6 8 1.8 9.4 0.1-0.4 0.2-0.8 0.3-1.2 1.3-7 1.7-14 1.8-20.5 0-3.9-0.1-7.5-0.4-11-2.4-0.1-13.4-0.4-18.2-2.7-4.6-2.2-9.8-6.3-10.9-11.5-1.1-5.2 2.1-10.5 7.6-11.1 7.6-0.8 16.5 9.7 19.2 15.9 0.2 0.3 1.3 3.9 2.1 6.6-0.1-1.6-0.3-3.3-0.4-4.8-0.6-5.7-1.5-10.9-2.3-15.5-0.5-2.6-1-5-1.5-7.2-2.3-1.3-11.7-6.6-14.8-10.8-3.1-4-5.9-10-4.4-15.2 1.4-5.1 6.7-8.3 11.8-6.3 7.1 2.8 10.2 16.2 9.8 23-0.1 0.6-1.7 9.7-1.8 9.6q-0.2-0.1-0.2-0.1c0.5 2.1 1.1 4.4 1.6 6.9 0.9 4.6 1.9 9.8 2.6 15.5 0.7 5.8 1.4 12 1.4 18.6 0.1 6.7-0.2 13.7-1.4 20.9q0 0.1 0 0.2c1-2 4-7.4 4.3-7.8 3.9-5.6 14.7-14 22-11.8 5.2 1.7 7.3 7.5 5.2 12.4-2.1 4.9-8 7.9-12.9 9.1-5.6 1.4-17.8-0.9-18.8-1.1-1.2 6.9-3 13.8-5.2 20.7-1.3 3.9-2.6 7.9-4.1 11.8 0.9-1.7 1.8-3.2 1.9-3.4 3.9-5.6 14.8-14 22-11.8 5.3 1.7 7.4 7.5 5.3 12.4-2.1 4.9-8 7.9-13 9.1-5 1.2-15.4-0.5-18.2-1q-0.8 2.3-1.7 4.5c-2.7 7.2-5.5 14.4-8 21.5-0.9 2.5-1.7 5-2.5 7.5 0.8-1.5 1.5-2.8 1.7-2.9 3.9-5.6 14.7-14 22-11.8 5.2 1.7 7.3 7.5 5.2 12.4-2.1 4.9-8 7.8-12.9 9.1-4.8 1.2-14.5-0.3-17.8-0.9-0.7 2.6-1.4 5.2-2 7.7-0.4 1.7-0.9 3.4-1.1 5.2q-0.5 2.6-0.9 5.1c-0.5 3.4-1 6.8-1.3 10-0.3 2.3-0.5 4.4-0.7 6.6 0.8-2.5 2.6-7.4 2.8-7.8 2-4 6.8-9.8 12.1-12.8q0.4-0.9 1-1.7c3.2-4.2 9.3-5.4 13.3-1.7 5.6 5.2 3.7 18.8 0.9 25-0.2 0.3-2.5 4.1-3.9 6.4 1-1.2 2.1-2.4 3.2-3.7 2.2-2.5 4.5-5 6.9-7.6q1.8-1.9 3.7-3.8c1.2-1.2 2.6-2.4 4-3.7 3.1-2.8 6.4-5.6 9.8-8.2-2.2-2-9.9-8.9-12-13.6-2.1-4.6-3.6-11.1-1-15.8 2.5-4.6 8.3-6.7 12.9-3.6 6.3 4.2 6.5 18 4.6 24.5-0.1 0.4-2 4.9-3.1 7.4 2.1-1.6 4.1-3.2 6.3-4.7 6.1-4.5 12.5-8.8 18.9-13.1q2.9-2 5.8-4c-0.8-0.7-10.2-8.8-12.6-14-2.1-4.6-3.5-11.1-1-15.8 2.5-4.7 8.4-6.7 12.9-3.6 6.3 4.2 6.5 17.9 4.7 24.5-0.2 0.5-2.9 7-3.7 8.6 4.3-2.9 8.5-5.9 12.5-9 5.6-4.3 10.8-8.8 15.5-13.5-0.3-0.4-10.1-8.8-12.6-14.1-2.1-4.6-3.5-11-1-15.8 2.5-4.6 8.4-6.7 12.9-3.6 6.3 4.2 6.5 18 4.6 24.5-0.1 0.5-3 7.5-3.7 8.8 0.3-0.3 0.6-0.6 0.9-0.9 5-5.1 9.2-10.7 12.9-16.1 2.1-3.1 4-6.3 5.7-9.4-2-1.3-11-7.7-13.7-12.3-2.6-4.3-4.7-10.6-2.7-15.6 1.9-4.9 7.5-7.6 12.4-5 6.7 3.5 8.4 17.2 7.3 23.9-0.1 0.3-1.1 4-1.9 6.6 0.7-1.4 1.5-2.9 2.3-4.2 2.6-5.1 4.8-9.9 6.6-14.2 1.1-2.5 1.9-4.7 2.8-6.8-1.3-2.4-6.2-12-6.5-17.2-0.3-5.1 0.7-11.6 4.8-15.1 3.9-3.5 10.2-3.3 13.3 1.2 4.4 6.3-0.4 19.2-4.5 24.6-0.4 0.5-6.8 7.1-6.9 7q0-0.1 0-0.1c-0.8 2-1.6 4.2-2.5 6.5-1.8 4.4-3.8 9.3-6.4 14.5-2.6 5.1-5.5 10.7-9.1 16.3-3.6 5.6-7.7 11.3-12.7 16.6q0 0.1-0.1 0.2c1.9-1.1 7.4-4 7.9-4.2 6.3-2.5 20-3.6 24.8 2.3 3.5 4.3 2 10.3-2.4 13.2-4.5 3-11.1 2.2-15.9 0.5z"/>
			<path id="&lt;Path&gt;" class="s0" d="m736.4 702.6c-0.2 0 1.9-9 2.1-9.6 2.4-6.4 10.6-17.4 18.2-17.1 5.5 0.2 9 5.3 8.3 10.5-0.7 5.3-5.7 9.7-10.1 12.2-5.2 2.9-18.5 4-18.5 4z"/>
		</g>
	</g>
	<g id="Icons">
		<g id="&lt;Group&gt;">
			<circle id="&lt;Path&gt;" class="s2" cx="843" cy="356.3" r="71.5"/>
			<g id="&lt;Group&gt;">
				<path id="&lt;Path&gt;" class="s3" d="m842.8 373.9c-7.9 0-14.4-6.4-14.4-14.4v-45.7c0-8 6.5-14.5 14.4-14.5 8 0 14.5 6.5 14.5 14.5v45.7c0 8-6.5 14.4-14.5 14.4z"/>
				<g id="&lt;Group&gt;">
					<g id="&lt;Group&gt;">
						<path id="&lt;Path&gt;" class="s3" d="m843 384.3c-14.1 0-25.5-11.4-25.5-25.5v-21.5c0-1.4 1.1-2.6 2.6-2.6 1.4 0 2.6 1.2 2.6 2.6v21.5c0 11.2 9.1 20.2 20.3 20.2 11.1 0 20.2-9 20.2-20.2v-21.5c0-1.4 1.2-2.6 2.6-2.6 1.5 0 2.7 1.2 2.7 2.6v21.5c0 14.1-11.5 25.5-25.5 25.5z"/>
					</g>
					<g id="&lt;Group&gt;">
						<path id="&lt;Path&gt;" class="s3" d="m843 411.8c-1.5 0-2.7-1.2-2.7-2.7v-27.4c0-1.5 1.2-2.7 2.7-2.7 1.4 0 2.6 1.2 2.6 2.7v27.4c0 1.5-1.2 2.7-2.6 2.7z"/>
					</g>
					<g id="&lt;Group&gt;">
						<path id="&lt;Path&gt;" class="s3" d="m860.6 413.2h-35.2c-1.5 0-2.7-1.2-2.7-2.7 0-1.4 1.2-2.6 2.7-2.6h35.2c1.4 0 2.6 1.2 2.6 2.6 0 1.5-1.2 2.7-2.6 2.7z"/>
					</g>
				</g>
			</g>
		</g>
		<g id="&lt;Group&gt;">
			<circle id="&lt;Path&gt;" class="s2" cx="174.8" cy="163.6" r="66.4"/>
			<path id="&lt;Path&gt;" class="s3" d="m215.8 183.5l-19.4-11.2v9.1c0 4.4-3.6 8-8 8h-43.8c-4.3 0-7.9-3.6-7.9-8v-35.2c0-4.4 3.6-8 7.9-8h43.8c4.4 0 8 3.6 8 8v9.1l19.4-11.2z"/>
		</g>
		<g id="&lt;Group&gt;">
			<circle id="&lt;Path&gt;" class="s2" cx="849.8" cy="555.1" r="37.5"/>
			<path id="&lt;Path&gt;" class="s3" d="m872.9 566.3l-10.9-6.3v5.2c0 2.4-2 4.4-4.5 4.4h-24.7c-2.4 0-4.4-2-4.4-4.4v-19.9c0-2.5 2-4.5 4.4-4.5h24.7c2.5 0 4.5 2 4.5 4.5v5.2l10.9-6.4z"/>
		</g>
		<g id="&lt;Group&gt;">
			<circle id="&lt;Path&gt;" class="s2" cx="157.4" cy="788" r="42.6"/>
			<path id="&lt;Path&gt;" class="s3" d="m187 788.6l-1.3 6.8c-0.2 0.9-1 1.6-2 1.6h-13c-1.1 0-2-0.9-2-2v-7.3h-22.6v7.3c0 1.1-0.9 2-2 2h-13c-1 0-1.8-0.7-2-1.6l-1.3-6.8c-0.9-5 2.9-9.6 8-9.6h6.3 4 22.6 6.1 4.2c5.1 0 8.9 4.6 8 9.6z"/>
		</g>
	</g>
	<g id="Device">
		<g id="&lt;Group&gt;">
			<g id="&lt;Group&gt;">
				<g id="&lt;Group&gt;">
					<path id="&lt;Path&gt;" class="s4" d="m707.4 121.1v737.7c0 14.9-12.4 27-27.7 27h-363.4c-15.3 0-27.7-12.1-27.7-27v-737.7c0-14.9 12.4-27 27.7-27h143.3l5.9 11.1c6.4 11.8 18.9 19.1 32.5 19.1 13.7 0 26.2-7.3 32.5-19.1l6-11.1h143.2c15.3 0 27.7 12.1 27.7 27z"/>
					<g id="&lt;Group&gt;">
						<path id="&lt;Path&gt;" class="s5" d="m678.6 120.6h-28.9v-15.9h28.9z"/>
						<path id="&lt;Path&gt;" class="s6" d="m672.2 120.6h-22.5v-15.9h22.5z"/>
						<path id="&lt;Path&gt;" class="s6" d="m682.6 116.2h-4.1v-7h4.1z"/>
					</g>
					<g id="&lt;Group&gt;">
						<path id="&lt;Path&gt;" class="s7" d="m317.8 118.7h-5.3v-9h5.3z"/>
						<path id="&lt;Path&gt;" class="s7" d="m326.1 118.7h-5.3v-12.2h5.3z"/>
						<path id="&lt;Path&gt;" class="s7" d="m334.4 118.7h-5.3v-16h5.3z"/>
					</g>
					<path id="&lt;Path&gt;" class="s8" d="m301.4 126h393.1"/>
				</g>
				<g id="&lt;Group&gt;">
					<path id="&lt;Compound Path&gt;" fill-rule="evenodd" class="s9" d="m575.3 594.2q42.4 5.4 74.4 11.2v280.4h-286.4l-10.9-82.3-63.8 38.7v-143.5c30.1-28.8 66.5-63.7 71.7-67.9 7.4-5.9 55.8-10.5 74.7-12.2q0-1-0.1-1.5c-1.3-12.4 15.1-32.9 22.4-50.3 1.5-3.7 3.1-6.2 4.6-7.9 2-3.3 6.4-4.5 10.2-2.5-6.1-6.3-11.1-12.8-14-19-4-8.2-7.7-23.4-11-39.9q-0.5-3.1-0.8-6.2c-2.9 3.3-9.6 0.7-14.6-5.8-3.7-4.7-12-14.9-16.4-25.4q-0.1 0.1-0.1 0.3c-3.5 10.4-12.2 15.6-21.7 28.7-9.6 13-14.8 30.4-22.6 44.2q-7.8 13.9-35 18.8-13.9 24.5-23.6 40.8l10.8 5.6-27.8 38.2-5.3-4.1-1.4 2.6v-253.8c4.8-0.7 9.3 3 9.3 8v58.8l10.2 0.6 11.4-74c0.6-3.8 3.7-6.6 7.6-6.8 4.8-0.3 8.8 3.7 8.6 8.6l-3.6 73.6 5.7 0.8 16.7-73.6c0.9-4.2 4.8-7 9.1-6.5 4.5 0.5 7.8 4.5 7.4 9.1l-7.1 72.6 28-54.3c0.7-1.3 1.8-2.3 3.1-2.9-10.5-5.5-27-15.3-17.1-37.1q14.2-31.1 69.8-28.3c-17-17.9-13.2-26.4 21.7-35.8 34.9-9.5 57.5 7.5 73.5 19.8 16 12.2 16 2.8 24.5-8.5 8.5-11.3 36.8 2.8 43.4 29.2 6.6 26.4-9.5 44.3-17.9 63.2-2.8 6.2-4.5 13.2-5.6 19.7 2.4-0.5 5.5-0.1 9.3 2.1 16.2 9.3 2.2 40.5-1.9 50.4-1.7 3.9-4 7-6.4 8.6 0.8 18.1 1 34.4-0.2 43.6-1.9 15.2-9 32.5-19.1 45.7 1.2 7.6 2.7 17.6 3.9 26.7zm-156.1-159.1c-4.2-2.9-14.2-5.9-22.4-11.9q-0.3-0.2-0.6-0.4l-21 53.2q11.3-9.6 22.6-18.3c6.1-4.7 11.7-6.5 15-5.7-1-5.5-0.2-10.6 3.8-14.6q1.3-1.4 2.6-2.3z"/>
					<g id="&lt;Group&gt;">
						<g id="&lt;Group&gt;">
							<path id="&lt;Path&gt;" class="s10" d="m397.6 805.1l-110.9 67.3v-136.4q109.6-106 119.3-113.7 9.7-7.8 87.2-13.6l140.4-25.2q44.9 5.8 78.7 11.9v297.4h-303.1z"/>
							<g id="&lt;Group&gt;">
								<path id="&lt;Path&gt;" class="s11" d="m603.3 867.1l17 15.9c0.4 0.4 0.4 1.1 0 1.6-0.2 0.2-0.5 0.3-0.8 0.3q-0.4 0-0.8-0.3l-16.9-15.9c-0.4-0.4-0.4-1.1 0-1.6 0.4-0.4 1.1-0.4 1.5 0z"/>
								<path id="&lt;Path&gt;" class="s11" d="m623.3 747.2l-13.9 15c-0.2 0.2-0.5 0.3-0.8 0.3q-0.5 0-0.8-0.3c-0.4-0.4-0.5-1.1-0.1-1.6l0.5-0.5-8.8 8.1q-0.4 0.3-0.8 0.3c-0.3 0-0.6-0.1-0.8-0.4-0.4-0.4-0.4-1.1 0.1-1.6l10.9-9.9c0.5-0.4 1.2-0.4 1.6 0.1 0.2 0.2 0.3 0.5 0.2 0.8l11.1-11.8c0.4-0.4 1.1-0.5 1.6 0 0.4 0.4 0.4 1.1 0 1.5z"/>
								<path id="&lt;Path&gt;" class="s11" d="m611.2 670.7l-14.9 11.9q-0.3 0.3-0.7 0.3c-0.3 0-0.6-0.2-0.8-0.4-0.4-0.5-0.4-1.2 0.1-1.6l15-11.9c0.4-0.4 1.1-0.3 1.5 0.1 0.4 0.5 0.3 1.2-0.2 1.6z"/>
								<path id="&lt;Path&gt;" class="s11" d="m409.5 655q-0.4 0-0.8-0.3c-0.4-0.4-0.4-1.1 0-1.5l13.9-15c0.4-0.4 1.2-0.4 1.6 0 0.4 0.4 0.5 1.1 0.1 1.5l-14 15c-0.2 0.2-0.5 0.3-0.8 0.3z"/>
								<path id="&lt;Path&gt;" class="s11" d="m588.9 723.4l-16.9-15.9c-0.5-0.5-0.5-1.2-0.1-1.6 0.4-0.5 1.1-0.5 1.6-0.1l16.9 16c0.5 0.4 0.5 1.1 0.1 1.5-0.3 0.3-0.6 0.4-0.9 0.4q-0.4 0-0.7-0.3z"/>
								<path id="&lt;Path&gt;" class="s11" d="m555.7 762.5l-3-22.9c-0.1-0.6 0.4-1.1 1-1.2 0.6-0.1 1.1 0.3 1.2 1l3 22.8c0.1 0.7-0.3 1.2-1 1.3q0 0-0.1 0c-0.5 0-1-0.4-1.1-1z"/>
								<path id="&lt;Path&gt;" class="s11" d="m582.4 841.2c0.5 0.4 0.5 1.1 0.1 1.6l-13.9 14.9c-0.3 0.2-0.5 0.3-0.8 0.3q-0.5 0-0.8-0.3c-0.5-0.4-0.5-1.1-0.1-1.5l14-14.9c0.4-0.5 1.1-0.5 1.5-0.1z"/>
								<path id="&lt;Path&gt;" class="s11" d="m406.5 766.8l-10-23.9c-0.2-0.6 0.1-1.2 0.6-1.4 0.6-0.3 1.3 0 1.5 0.6l9.9 23.8c0.3 0.6 0 1.3-0.6 1.5q-0.2 0.1-0.4 0.1c-0.4 0-0.8-0.3-1-0.7z"/>
								<path id="&lt;Path&gt;" class="s11" d="m624.6 843.7c-0.4-0.5-0.3-1.2 0.2-1.6l14.9-11.9c0.5-0.4 1.2-0.3 1.6 0.2 0.4 0.4 0.3 1.1-0.2 1.5l-14.9 12q-0.3 0.2-0.7 0.2c-0.3 0-0.7-0.1-0.9-0.4z"/>
								<path id="&lt;Path&gt;" class="s11" d="m632.5 724.1c0.2 0.6-0.1 1.3-0.6 1.5q-0.2 0.1-0.5 0.1c-0.4 0-0.8-0.3-1-0.7l-9.9-23.9c-0.3-0.6 0-1.2 0.6-1.4 0.5-0.3 1.2 0 1.4 0.6z"/>
								<path id="&lt;Path&gt;" class="s11" d="m626.4 828.2l-3-22.9c-0.1-0.6 0.3-1.1 0.9-1.2 0.6-0.1 1.2 0.3 1.3 0.9l3 22.9c0 0.6-0.4 1.2-1 1.3q-0.1 0-0.1 0c-0.6 0-1.1-0.4-1.1-1z"/>
								<path id="&lt;Path&gt;" class="s11" d="m286.7 868.5v-3l2.6-2.4c0.5-0.4 1.2-0.4 1.6 0.1 0.4 0.4 0.4 1.1-0.1 1.5z"/>
								<path id="&lt;Path&gt;" class="s11" d="m349.6 747.6l16.9 16c0.4 0.4 0.4 1.1 0 1.5-0.2 0.3-0.5 0.4-0.8 0.4q-0.4 0-0.7-0.3l-17-15.9c-0.4-0.5-0.4-1.2 0-1.6 0.4-0.5 1.1-0.5 1.6-0.1z"/>
								<path id="&lt;Path&gt;" class="s11" d="m369.5 699.5l-11 10q-0.3 0.3-0.7 0.3c-0.3 0-0.6-0.2-0.9-0.4-0.4-0.5-0.3-1.2 0.1-1.6l11-9.9c0.4-0.4 1.1-0.4 1.5 0 0.4 0.5 0.4 1.2 0 1.6z"/>
								<path id="&lt;Path&gt;" class="s11" d="m380.9 645.5q0.9-0.8 1.8-1.6l8.9 21.5c0.3 0.6 0 1.2-0.6 1.5q-0.2 0.1-0.4 0.1c-0.4 0-0.8-0.3-1-0.7z"/>
								<path id="&lt;Path&gt;" class="s11" d="m387.3 712.5l-14.9 11.9q-0.3 0.3-0.7 0.3c-0.3 0-0.7-0.2-0.9-0.4-0.4-0.5-0.3-1.2 0.2-1.6l14.9-11.9c0.5-0.4 1.2-0.3 1.6 0.1 0.4 0.5 0.3 1.2-0.2 1.6z"/>
								<path id="&lt;Path&gt;" class="s11" d="m386.4 798.5c0.5 0.4 0.4 1.1 0 1.5l-11 10q-0.3 0.3-0.7 0.3c-0.3 0-0.6-0.1-0.8-0.4-0.5-0.4-0.4-1.1 0-1.6l11-9.9c0.4-0.4 1.1-0.4 1.5 0.1z"/>
								<path id="&lt;Path&gt;" class="s11" d="m331.8 804.3l-3-22.9c-0.1-0.6 0.3-1.1 0.9-1.2 0.6-0.1 1.2 0.3 1.3 1l3 22.8c0.1 0.7-0.4 1.2-1 1.3q-0.1 0-0.1 0c-0.6 0-1.1-0.4-1.1-1z"/>
								<path id="&lt;Path&gt;" class="s11" d="m313.2 738.3c-0.4-0.4-0.5-1.1 0-1.5l13.9-15c0.4-0.4 1.1-0.4 1.6 0 0.4 0.4 0.4 1.1 0 1.5l-13.9 15c-0.2 0.2-0.5 0.3-0.8 0.3q-0.5 0-0.8-0.3z"/>
								<path id="&lt;Path&gt;" class="s11" d="m286.7 778.4l3.7-2.9c0.5-0.4 1.2-0.3 1.5 0.1 0.4 0.5 0.3 1.2-0.1 1.6l-5.1 4z"/>
								<path id="&lt;Path&gt;" class="s11" d="m303 806.7l10 23.9c0.2 0.6 0 1.3-0.6 1.5q-0.2 0.1-0.4 0.1c-0.5 0-0.9-0.3-1.1-0.7l-9.9-23.9c-0.2-0.6 0-1.2 0.6-1.5 0.6-0.2 1.2 0.1 1.4 0.6z"/>
								<path id="&lt;Path&gt;" class="s11" d="m423.6 869.1l14-14.9c0.4-0.5 1.1-0.5 1.5-0.1 0.5 0.5 0.5 1.2 0.1 1.6l-14 14.9c-0.2 0.3-0.5 0.4-0.8 0.4q-0.4 0-0.7-0.3c-0.5-0.4-0.5-1.1-0.1-1.6z"/>
								<path id="&lt;Path&gt;" class="s11" d="m516.7 892.8h-2.4l-7.3-17.5c-0.2-0.6 0-1.2 0.6-1.5 0.6-0.2 1.2 0.1 1.5 0.6z"/>
								<path id="&lt;Path&gt;" class="s11" d="m473.6 892.8h-3.3l-11.8-11.2c-0.4-0.4-0.5-1.1 0-1.5 0.4-0.5 1.1-0.5 1.5-0.1z"/>
								<path id="&lt;Path&gt;" class="s11" d="m661.1 787.5c0.4 0.4 0.4 1.1 0 1.5-0.2 0.3-0.5 0.4-0.8 0.4q-0.4 0-0.8-0.3l-16.9-15.9c-0.4-0.5-0.4-1.2 0-1.6 0.4-0.5 1.1-0.5 1.6-0.1z"/>
								<path id="&lt;Path&gt;" class="s11" d="m552.6 681.5l-13.9 15c-0.2 0.2-0.5 0.3-0.8 0.3q-0.4 0-0.8-0.3c-0.4-0.4-0.4-1.1 0-1.5l13.9-15c0.4-0.4 1.1-0.4 1.6 0 0.4 0.4 0.5 1.1 0 1.5z"/>
								<path id="&lt;Path&gt;" class="s11" d="m460.5 681.6l-16.9-15.9c-0.5-0.5-0.5-1.2-0.1-1.6 0.5-0.5 1.2-0.5 1.6-0.1l16.9 16c0.5 0.4 0.5 1.1 0.1 1.5-0.2 0.3-0.5 0.4-0.8 0.4q-0.5 0-0.8-0.3z"/>
								<path id="&lt;Path&gt;" class="s11" d="m457.2 833.2l-3-22.9c-0.1-0.6 0.3-1.2 0.9-1.2 0.6-0.1 1.2 0.3 1.3 0.9l3 22.9c0.1 0.6-0.4 1.2-1 1.3q-0.1 0-0.1 0c-0.6 0-1.1-0.4-1.1-1z"/>
								<path id="&lt;Path&gt;" class="s11" d="m681 822.4c0.5 0.4 0.4 1.1 0 1.5l-11 10q-0.3 0.3-0.7 0.3c-0.3 0-0.6-0.2-0.9-0.4-0.4-0.5-0.3-1.2 0.1-1.6l11-9.9c0.4-0.4 1.1-0.4 1.5 0.1z"/>
								<path id="&lt;Path&gt;" class="s11" d="m703.1 789.8c0.3 0.6 0 1.2-0.6 1.5q-0.2 0.1-0.4 0.1c-0.4 0-0.8-0.3-1-0.7l-10-23.9c-0.2-0.6 0.1-1.2 0.6-1.5 0.6-0.2 1.2 0.1 1.5 0.6z"/>
								<path id="&lt;Path&gt;" class="s11" d="m681.9 736.4l-14.9 11.9q-0.3 0.3-0.7 0.3c-0.3 0-0.7-0.2-0.9-0.4-0.4-0.5-0.3-1.2 0.2-1.6l14.9-12c0.5-0.3 1.2-0.3 1.6 0.2 0.4 0.5 0.3 1.2-0.2 1.6z"/>
								<path id="&lt;Path&gt;" class="s11" d="m652.4 861.5l9.9 23.9c0.3 0.5 0 1.2-0.6 1.4q-0.2 0.1-0.4 0.1c-0.4 0-0.8-0.2-1-0.7l-10-23.9c-0.2-0.5 0.1-1.2 0.6-1.4 0.6-0.2 1.2 0 1.5 0.6z"/>
								<path id="&lt;Path&gt;" class="s11" d="m440.2 767.1c-0.2 0.3-0.5 0.4-0.8 0.4q-0.5 0-0.8-0.3c-0.4-0.4-0.5-1.1 0-1.6l13.9-14.9c0.4-0.5 1.1-0.5 1.6-0.1 0.4 0.5 0.4 1.2 0 1.6z"/>
								<path id="&lt;Path&gt;" class="s11" d="m512.7 741.4l-14.9 11.9q-0.3 0.2-0.7 0.2c-0.3 0-0.7-0.1-0.9-0.4-0.4-0.4-0.3-1.1 0.2-1.5l14.9-12c0.5-0.4 1.2-0.3 1.6 0.2 0.4 0.5 0.3 1.2-0.2 1.6z"/>
								<path id="&lt;Path&gt;" class="s11" d="m511.8 827.3c0.5 0.5 0.4 1.2 0 1.6l-11 10q-0.3 0.2-0.7 0.2c-0.3 0-0.6-0.1-0.8-0.3-0.5-0.5-0.4-1.2 0-1.6l11-9.9c0.4-0.5 1.1-0.4 1.5 0z"/>
								<path id="&lt;Path&gt;" class="s11" d="m469.4 726.3c-0.4-0.4-0.4-1.1 0.1-1.6l10.9-9.9c0.5-0.4 1.2-0.4 1.6 0.1 0.4 0.4 0.4 1.1-0.1 1.5l-10.9 10q-0.4 0.3-0.8 0.3c-0.3 0-0.6-0.1-0.8-0.4z"/>
								<path id="&lt;Path&gt;" class="s11" d="m524 770.9l9.9 23.9c0.3 0.6 0 1.2-0.6 1.5q-0.2 0-0.4 0c-0.4 0-0.8-0.2-1-0.6l-10-23.9c-0.2-0.6 0.1-1.2 0.6-1.5 0.6-0.2 1.3 0.1 1.5 0.6z"/>
								<path id="&lt;Path&gt;" class="s11" d="m482.9 628.9l-15 11.9q-0.3 0.3-0.7 0.3c-0.3 0-0.6-0.2-0.8-0.4-0.4-0.5-0.3-1.2 0.1-1.6l15-11.9c0.5-0.4 1.1-0.3 1.5 0.1 0.4 0.5 0.3 1.2-0.1 1.6z"/>
								<path id="&lt;Path&gt;" class="s11" d="m494.1 658.5l10 23.8c0.2 0.6 0 1.3-0.6 1.5q-0.2 0.1-0.4 0.1c-0.5 0-0.9-0.3-1.1-0.7l-9.9-23.9c-0.2-0.6 0-1.2 0.6-1.4 0.5-0.3 1.2 0 1.4 0.6z"/>
								<path id="&lt;Path&gt;" class="s11" d="m481.3 856.6c-0.4-0.4-0.3-1.1 0.2-1.5l14.9-12c0.5-0.3 1.2-0.3 1.6 0.2 0.3 0.5 0.3 1.2-0.2 1.6l-14.9 11.9q-0.4 0.3-0.7 0.3c-0.4 0-0.7-0.2-0.9-0.5z"/>
								<path id="&lt;Path&gt;" class="s11" d="m427.3 720.7l-3-22.9c0-0.6 0.4-1.1 1-1.2 0.6-0.1 1.2 0.3 1.2 1l3 22.8c0.1 0.7-0.3 1.2-0.9 1.3q-0.1 0-0.2 0c-0.5 0-1-0.4-1.1-1z"/>
								<path id="&lt;Path&gt;" class="s11" d="m473.4 778.1c-0.4-0.4-0.4-1.1 0-1.5 0.4-0.5 1.1-0.5 1.6-0.1l16.9 15.9c0.4 0.5 0.4 1.2 0 1.6-0.2 0.2-0.5 0.4-0.8 0.4q-0.4 0-0.7-0.3z"/>
							</g>
							<path id="&lt;Path&gt;" class="s8" d="m397.6 805.1l-110.9 67.3v-136.4q109.6-106 119.3-113.7 9.7-7.8 87.2-13.6l140.4-25.2q44.9 5.8 78.7 11.9v297.4h-303.1z"/>
						</g>
						<g id="&lt;Group&gt;">
							<path id="&lt;Path&gt;" class="s12" d="m683.9 677.5q-1.9 7.7-18.4 50.3-16.4 42.6-26.1 166.6h-93.9q17.4-98.8 28-133.7 10.7-34.8 32-74.5z"/>
							<path id="&lt;Path&gt;" class="s13" d="m571.2 676.8c40.1 13.4 131.4-0.7 128.2 12.3-3.1 13-38.4 50.8-90.3 33.7q-52-17.1-98-59.4c-4.4-14.8 20.1 0 60.1 13.4z"/>
							<path id="&lt;Path&gt;" class="s13" d="m547.4 532.2c10.6-1.9 46.5-6.8 74.6 3.9 28 10.6 15.5 6.7 29 22.2 13.6 15.5 42.6 32 48.4 48.5 5.8 16.4 8.7 27.1 8.7 38.7 0 11.6-0.9 29-8.7 43.6-7.7 14.5-30 24.2-62.9 24.2-30.4 0-84.3-19.4-118.2-45.5-33.9-26.2-28-44.6-31.9-57.2 0.6 2.1 15.2-39.4 22.3-56.1q7.7-18.4 16.4-9.7 11.6-10.7 22.3-12.6z"/>
							<g id="&lt;Group&gt;">
								<path id="&lt;Path&gt;" class="s14" d="m551.3 544.8q19.3 15.5 73.6-2 5.8 35.9 7.7 54.3c1.9 18.4-1 47.4-21.3 49.4-20.3 1.9-78.4-31-81.3-46.5q-2.9-15.5-6.8-71.7 8.7 1 28.1 16.5z"/>
								<path id="&lt;Path&gt;" class="s13" d="m528.3 588.4q-2.5-22.1-5.1-60.1 8.7 1 28.1 16.5 19.3 15.5 73.6-2 0.6 4.2 1.6 10.4l-21 16q-33.3 13.3-75 19c-0.7 0.1-1.4 0.1-2.2 0.2z"/>
							</g>
							<g id="&lt;Group&gt;">
								<path id="&lt;Path&gt;" class="s12" d="m699.4 606.8c5.8 16.4 8.7 27.1 8.7 38.7 0 11.6-0.9 29-8.7 43.6-7.7 14.5-30 24.2-62.9 24.2-30.4 0-84.3-19.4-118.2-45.5-33.9-26.2-32.8-55.3-33.3-60.1-1.5-13.1 15.9-34.8 23.7-53.2 1.6-3.9 3.2-6.5 4.9-8.3 0.4 9.1 4.5 42.9 38.6 59.6 39.7 19.4 97.8 25.2 123 19.4 18.6-4.3 19.3-20.2 18.3-28.2 2.7 3.2 4.8 6.5 5.9 9.8z"/>
								<path id="&lt;Path&gt;" class="s8" d="m696.3 643.9q4-4.1 7.5-8.8"/>
								<path id="&lt;Path&gt;" class="s8" d="m685.7 653.3c-41.8 31.7-109.2 29.3-149.7-6.6q-47.1-41.8-36.4-72.8"/>
								<path id="&lt;Path&gt;" class="s8" d="m500.5 597.8q-1.8 55.1 54.1 92.4"/>
							</g>
						</g>
						<g id="&lt;Group&gt;">
							<g id="&lt;Group&gt;">
								<path id="&lt;Path&gt;" class="s13" d="m521.4 265.9c37-10 60.9 8 77.9 20.9 16.9 13 16.9 3 25.9-8.9 9-12 38.9 2.9 45.9 30.9 7 27.9-9.9 46.9-18.9 66.8-9 20-7 46.9-11 46.9-4 0-3-40.9-8-48.8-5-8-17-9-24.9-12-8-3-54.9-2-74.9 12.9-19.9 15-19.9 26-25.9 35-6 9-4 26.9-11 30.9q-7 4-17-2-7.9-16.9-8.9-20.9c-1-4-15-7-26-15-11-8 5-19 6-24 1-4.9-40.9-11.9-26-44.9q15-32.9 73.9-29.9c-18-19-14-27.9 22.9-37.9z"/>
								<g id="&lt;Group&gt;">
									<path id="&lt;Path&gt;" class="s15" d="m527.7 276.3c-4-1.3-6.9-2-7.9-2"/>
									<path id="&lt;Path&gt;" class="s15" d="m541.6 281.4c19.9 8.2 46 23.1 46 41.2q0 15.5-20.4 25.9"/>
									<path id="&lt;Path&gt;" class="s15" d="m507.3 307.4q20.8 1 37.5 8.9 23.6 11.3 17 34"/>
									<path id="&lt;Path&gt;" class="s15" d="m447.9 335q-3.9 0.1-6.8 0.1"/>
									<path id="&lt;Path&gt;" class="s15" d="m458.2 334.7c11.4-0.5 26.5-1.5 44.6-3.2q29.5-2.6 41.1 10.8"/>
									<path id="&lt;Path&gt;" class="s15" d="m642.3 285.9q12.5 17.9 0 30.4c-2.5 2.5-5 4.6-7.4 6.4"/>
									<path id="&lt;Path&gt;" class="s15" d="m616.4 331.5q4.9-0.9 11.5-4.5"/>
									<path id="&lt;Path&gt;" class="s15" d="m493.8 369.8q-23.3 20.7-35 23.3"/>
								</g>
							</g>
							<path id="&lt;Path&gt;" class="s14" d="m635.9 411.6q3.1-22.6 20.3-12.8c17.1 9.8 2.3 42.8-2.1 53.3-4.4 10.5-13.5 15-16.1 5.4q-2.6-9.6-2.1-45.9z"/>
							<g id="&lt;Group&gt;">
								<path id="&lt;Path&gt;" class="s14" d="m498.5 469.5c0 9.9-10 7.9-17-1-7-9-29.9-37-15.9-50.9q13.9-14 22.9 6.9 10 35 10 45z"/>
								<path id="&lt;Path&gt;" class="s14" d="m504.5 392.6c8-11 1-16-6-21.9-7-6 1-21 19-28 17.9-7 30.9 10 47.9 9 16.9-1 33.9-17 49.9-15q15.9 2 24.9 33 11 106.7 7 137.7c-4 30.9-28 69.8-55.9 70.8-27.9 1-69.9-29.9-81.8-54.9q-12-24.9-18.5-113 5.5-6.7 13.5-17.7z"/>
								<path id="&lt;Path&gt;" class="s16" d="m599.3 388.6q8-6 18.9-6 11 0 16 6"/>
								<path id="&lt;Path&gt;" class="s16" d="m557.4 398.6q-21-9-37 9"/>
								<ellipse id="&lt;Path&gt;" class="s17" cx="542.9" cy="427" rx="5.5" ry="9.5"/>
								<ellipse id="&lt;Path&gt;" class="s17" cx="607.8" cy="419.1" rx="5.5" ry="9.5"/>
								<path id="&lt;Path&gt;" class="s8" d="m530.4 440.5l20 1"/>
								<path id="&lt;Path&gt;" class="s8" d="m609.3 437.5l15.9-8"/>
								<path id="&lt;Path&gt;" class="s13" d="m591.3 578.2c-27.9 1-69.9-29.9-81.8-54.9-4.2-8.6-8.2-24.7-11.7-42.2q-2.8-21.5-5.3-41.6 6 30 12 46.9c6 17 17.9 29 16.9 24-1-5 1-18 12-22 11-4 34.9-8 39.9-7q44.9-7 49.9 0c5 7 8 14 11 11 3-3 3-8 8-22 2.5-7.1 3.8-15.7 4.4-22.5 1.4 24.1 2.1 47.5 0.6 59.5-4 30.9-28 69.8-55.9 70.8z"/>
								<path id="&lt;Path&gt;" class="s15" d="m529.5 545.5q12.4 16.1 37 26.6"/>
								<g id="&lt;Group&gt;">
									<path id="&lt;Path&gt;" class="s14" d="m563.4 503.4l38.9-2q-4 22.9-19 20.9-15-2-21.9-14.9-2-6 2-4z"/>
									<path id="&lt;Path&gt;" class="s14" d="m608.3 499.4q-5 35.9-26 31.9-20.9-4-24.9-27.9z"/>
									<path id="&lt;Path&gt;" class="s13" d="m595.8 502.3q-2.4 17.7-12.7 15.7-10.3-2-12.2-13.7z"/>
									<path id="&lt;Path&gt;" class="s14" d="m618.2 496.4q-24.9 11-39.9 11-14.9 0-30.9-5 27.9-8 40.9-8 13 0 29.9 2z"/>
								</g>
								<path id="&lt;Path&gt;" class="s14" d="m596.3 394.6q-12 17-11 20c1 3 16 55.8 9 63.8-7 8-18 7-26 2-7.9-5-15.9-12.9-12.9-16.9q3-4 8-5"/>
							</g>
						</g>
						<g id="&lt;Group&gt;">
							<g id="&lt;Group&gt;">
								<path id="&lt;Path&gt;" class="s14" d="m297.7 581.6l16.8-42.7q1.9-3.9-6.3-14.9c-8.3-11.1-5-23.3 0.5-46.3 4.7-19.5 12-90.9 14.1-111.9 0.4-3.5 2.9-6.4 6.3-7.4 5.4-1.5 10.9 2.6 10.9 8.3v62.3l10.8 0.6 11.9-78.4c0.7-4 4-7 8.1-7.2 5.1-0.3 9.4 4 9.1 9.1l-3.7 78 5.9 0.8 17.8-77.9c0.9-4.4 5.1-7.4 9.6-6.9 4.8 0.5 8.2 4.8 7.8 9.6l-7.5 76.9 29.6-57.5c1.5-2.9 4.9-4.4 8.1-3.5 4 1.1 6.1 5.4 4.6 9.3l-30.3 76.5q11.9-10.1 23.9-19.3c11.9-9.2 22.1-8.3 18.4 2.7-3.7 11.1-12.9 16.6-23 30.4-10.1 13.8-15.6 32.2-23.9 46.9q-8.3 14.7-37.1 19.8-31.9 56.5-34.6 58.3z"/>
								<path id="&lt;Path&gt;" class="s8" d="m330.9 428.6l84.7 5.9"/>
								<path id="&lt;Path&gt;" class="s14" d="m357.2 528.4q-9-17.6 12.2-44.3 21.1-26.6 33.1-22.9"/>
							</g>
							<g id="&lt;Group&gt;">
								<path id="&lt;Path&gt;" class="s10" d="m283.3 577.5l5.2-4.2 47.8 42.3-53 96.5z"/>
								<g id="&lt;Group&gt;">
									<path id="&lt;Path&gt;" class="s11" d="m287.2 621.8c-0.4-0.5-0.3-1.2 0.2-1.6l14.9-11.9c0.5-0.4 1.2-0.3 1.6 0.1 0.4 0.5 0.3 1.2-0.2 1.6l-14.9 11.9q-0.3 0.3-0.7 0.3c-0.3 0-0.7-0.2-0.9-0.4z"/>
									<path id="&lt;Path&gt;" class="s11" d="m318.5 648l-1.4 2.5-4.2-10.1c-0.2-0.6 0.1-1.2 0.6-1.5 0.6-0.2 1.3 0.1 1.5 0.6z"/>
								</g>
								<path id="&lt;Path&gt;" class="s8" d="m283.3 577.5l5.2-4.2 47.8 42.3-53 96.5z"/>
							</g>
							<path id="&lt;Path&gt;" class="s14" d="m366.6 588l-29.4 40.5-53.9-41.7v-15l13.4-19.6z"/>
						</g>
					</g>
				</g>
				<g id="&lt;Group&gt;">
					<g id="&lt;Group&gt;">
						<circle id="&lt;Path&gt;" class="s18" cx="398" cy="830.4" r="28.5"/>
						<g id="&lt;Group&gt;">
							<path id="&lt;Path&gt;" class="s17" d="m397.9 837.4c-3.1 0-5.7-2.6-5.7-5.7v-18.3c0-3.2 2.6-5.7 5.7-5.7 3.2 0 5.8 2.5 5.8 5.7v18.3c0 3.1-2.6 5.7-5.8 5.7z"/>
							<g id="&lt;Group&gt;">
								<g id="&lt;Group&gt;">
									<path id="&lt;Path&gt;" class="s17" d="m398 841.6c-5.6 0-10.2-4.6-10.2-10.2v-8.6c0-0.6 0.5-1 1.1-1 0.5 0 1 0.4 1 1v8.6c0 4.4 3.6 8 8.1 8 4.4 0 8-3.6 8-8v-8.6c0-0.6 0.5-1 1.1-1 0.6 0 1.1 0.4 1.1 1v8.6c0 5.6-4.6 10.2-10.2 10.2z"/>
								</g>
								<g id="&lt;Group&gt;">
									<path id="&lt;Path&gt;" class="s17" d="m398 852.5c-0.6 0-1.1-0.5-1.1-1.1v-10.9c0-0.6 0.5-1.1 1.1-1.1 0.6 0 1 0.5 1 1.1v10.9c0 0.6-0.4 1.1-1 1.1z"/>
								</g>
								<g id="&lt;Group&gt;">
									<path id="&lt;Path&gt;" class="s17" d="m405 853.1h-14c-0.6 0-1.1-0.5-1.1-1.1 0-0.6 0.5-1 1.1-1h14c0.6 0 1 0.4 1 1 0 0.6-0.4 1.1-1 1.1z"/>
								</g>
							</g>
						</g>
					</g>
					<g id="&lt;Group&gt;">
						<circle id="&lt;Path&gt;" class="s18" cx="586.8" cy="830.4" r="28.5"/>
						<path id="&lt;Path&gt;" class="s17" d="m604.4 838.9l-8.3-4.8v3.9c0 1.9-1.6 3.4-3.4 3.4h-18.9c-1.8 0-3.4-1.5-3.4-3.4v-15.1c0-1.9 1.6-3.4 3.4-3.4h18.9c1.8 0 3.4 1.5 3.4 3.4v3.9l8.3-4.8z"/>
					</g>
					<g id="&lt;Group&gt;">
						<circle id="&lt;Path&gt;" class="s19" cx="492.4" cy="830.4" r="28.5"/>
						<path id="&lt;Path&gt;" class="s0" d="m512.2 830.8l-0.9 4.5c-0.1 0.6-0.6 1.1-1.3 1.1h-8.7c-0.7 0-1.3-0.6-1.3-1.4v-4.9h-15.2v4.9c0 0.8-0.6 1.4-1.3 1.4h-8.7c-0.7 0-1.2-0.5-1.4-1.1l-0.8-4.5c-0.6-3.4 1.9-6.5 5.4-6.5h4.1 2.7 15.2 4 2.8c3.4 0 6 3.1 5.4 6.5z"/>
					</g>
				</g>
				<path id="&lt;Compound Path&gt;" fill-rule="evenodd" class="s13" d="m720.2 347.7v26.8l7.6-0.1c1.6 0 2.9 1.4 2.9 3v35c0 1.6-1.3 2.9-2.9 2.9h-7.6v472.9c0 20.9-16.9 37.8-37.8 37.8h-368.8c-20.8 0-37.7-16.9-37.7-37.8v-775.3c0-20.8 16.9-37.7 37.7-37.7h368.8c20.9 0 37.8 16.9 37.8 37.7v150.3h7.6c1.6 0 2.9 1.3 2.9 2.9v78.7c0 1.6-1.3 2.9-2.9 2.9zm-12.8-226.6c0-14.9-12.3-27-27.6-27h-143.3l-5.9 11.1c-6.4 11.8-18.9 19.1-32.5 19.1-13.7 0-26.2-7.3-32.5-19.1l-6-11.1h-143.3c-15.2 0-27.6 12.1-27.6 27v737.7c0 14.9 12.4 27 27.6 27h363.5c15.3 0 27.6-12.1 27.6-27z"/>
				<circle id="&lt;Path&gt;" class="s14" cx="498" cy="98.4" r="9.9"/>
			</g>
		</g>
	</g>
	<g id="Character">
		<g id="&lt;Group&gt;">
			<path id="&lt;Path&gt;" class="s20" d="m319.3 352.6v-209.5h121.7v209.5z"/>
			<g id="&lt;Group&gt;">
				<path id="&lt;Path&gt;" class="s12" d="m320.2 352.6v-56.5c4.9-6.8 12.7-12.3 22.4-12.7q14.8-0.6 32.4-1.2 8.8 0 14.8-0.4c6-0.3 37.6-4.3 47.8 3.4q2 1.6 3.4 3.5v63.9z"/>
				<path id="&lt;Path&gt;" class="s21" d="m404 283.1c6.4 2.1 12.3 14.5 8.3 28.7q-4 14.2-30.2 36.4-8.4-8.1-20.7-16.4c-12.4-8.3-17.6-17.6-15.4-32.7q2.1-15.1 16-16.9 35.5-1.3 42 0.9z"/>
				<path id="&lt;Path&gt;" class="s21" d="m434.3 352.6l1.7-13.7 5-1.3v15z"/>
				<path id="&lt;Path&gt;" class="s21" d="m320.2 352.6v-5.6l11.3 1.2 1 4.4z"/>
				<path id="&lt;Path&gt;" class="s3" d="m325.3 320.1q3.1 13.4 6.3 26.8"/>
				<path id="&lt;Path&gt;" class="s17" d="m438.8 264.8c2.1 4.2-6.1 6.8-10.3 7.6-4.1 0.9-0.8 6.4-0.8 12.7 0 6.3-9 8-15.2 4.7-6.2-3.4-9.9-6.4-11.5 0-1.7 6.3-7.8 5-12.8-1.3-4.9-6.4-7-3-11.1 1.3-4.1 4.2-10.3-1.7-12.7-5.5-2.5-3.9-5.4 4.6-9.5 6.3-4.1 1.7-7.4-4.7-7.4-8 0-3.4-5.3 1.2-11.9 3.8-6.6 2.5-7.8-3.8-7.8-7.2 0-2.2-3.2-0.8-7.6-0.9v-96.8q0.1-0.1 0.2-0.1-0.1 0-0.2 0v-15.6c3.9-2 8.4-3.4 12.1-3.4q10.3 0 11.5 0-9.4-5.1-3.3-8.9c4-2.5 10.3 0.6 14.2 3-1.6-1.6-3.1-4-3.1-7.7 0-7.6 12-3.8 13.6 0.4 1.6 4.3 7.8 9.4 9.5 4.3 1.6-5.1 16.4-9.8 20.9-4.7 4.6 5.1-4.1 13.6-1.6 13.1 2.5-0.4 10.3-2.5 12.3 2.2 2.1 4.6 3.3 7.2 8.7 8.4 5.3 1.3 16.4-2.9 19.3 1.7 2.9 4.7-1.2 9.8 0 13.6 0.8 2.5 4.4 3.7 6.7 5.7v58.8c-2 1.5-4 2.8-5.1 3.6-3.2 2.5 0.9 4.7 2.9 8.9z"/>
				<path id="&lt;Path&gt;" class="s3" d="m434.7 348.1q1.9-15.1 3.8-30.2"/>
				<g id="&lt;Group&gt;">
					<path id="&lt;Path&gt;" class="s21" d="m363.3 304.7q0.9-16.4 0.9-21.9 0-5.6 0-13l29.6-1.8q1.5 23.1 7.7 32.7"/>
					<g id="&lt;Group&gt;">
						<path id="&lt;Path&gt;" class="s22" d="m349.4 251.1c0 1.4-1.2 3.8-4.5 2.8-3.4-1-7.7-7.3-7.7-9.7q0-2.3 6.3-9.2 5.9 14.7 5.9 16.1z"/>
						<path id="&lt;Path&gt;" class="s21" d="m406.4 232.2q8.5 3.9 9.5 6c0.9 2.2-0.6 9.7-3.3 11.9-2.7 2.2-4.7 0.5-5.2-0.7q-0.6-1.3-1-17.2z"/>
						<path id="&lt;Path&gt;" class="s22" d="m373.3 188.7c14.4 0 29.8 3.1 32 17.1 2.2 14.1 4.4 47 1.8 51.4-2.7 4.4-17.2 24.1-23.3 25-6.2 0.9-27.7-12.3-31.6-18-4-5.7-13.2-39.5-11.9-50.1q1.3-10.5 12.8-18 5.7-7.4 20.2-7.4z"/>
						<ellipse id="&lt;Path&gt;" class="s17" cx="365.8" cy="230.2" rx="2.3" ry="3.7"/>
						<ellipse id="&lt;Path&gt;" class="s17" cx="390.5" cy="227.4" rx="2.3" ry="3.7"/>
						<path id="&lt;Path&gt;" class="s8" d="m381.9 223.7q-0.9 11.3 1.6 11.9c2.5 0.6 4.7 6.3 0 8.2-4.7 1.8-6.9-0.3-7.5-2.5"/>
						<path id="&lt;Path&gt;" class="s23" d="m359.4 235.9l8.4-0.3"/>
						<path id="&lt;Path&gt;" class="s23" d="m389.8 233.1l7.2-3.4"/>
						<path id="&lt;Path&gt;" class="s17" d="m353.1 183.9c2.6-2.7 15.3-9.3 31.1-6.6q15.8 2.6 16.7 9.6-3.1 3.1-5.7 5.7c-2.6 2.7 0 6.2 0 9.7 0 3.5-3.9 7.5-9.7 6.6-5.7-0.9-1.3-6.2 1.8-7 3.1-0.9-1.8-1.8-5.7-5.8q-4-3.9 1.3-8.3l-6.6-3.9q-2.6 3-3 8.3c-0.5 5.3 3 2.6 5.2 6.1 2.2 3.6-1.7 13.2-7 10.1-5.3-3-5.3-4.8-7.5 1.4-2.2 6.1-5.2 7.9-12.3 7-7-0.9-2.2-4.9 0.5-5.7 2.6-0.9 1.7-1.8-2.2-2.7-4-0.8 1.3-6.5 3.9-10.1q2.7-3.5-4.8-5.7 1.3-6.1 4-8.7z"/>
						<g id="&lt;Group&gt;">
							<g id="&lt;Group&gt;">
								<path id="&lt;Path&gt;" class="s24" d="m378.9 253.3q9-0.3 16.9-4.3-2.7 10-6.2 12.8c-3.5 2.9-11.3 3.7-15.1 1.5q-3.9-2.1-10.5-11.1 6 1.5 14.9 1.1z"/>
								<path id="&lt;Path&gt;" class="s14" d="m368 252.9l23.9-2.2q-2.7 8.2-11.6 8.6-5.7 0.3-9.3-4.4z"/>
							</g>
							<path id="&lt;Path&gt;" class="s25" d="m380.8 254q-12.7 1-17.9-2.6 6.2 0.9 11.2-0.1 4.9-1.1 7.3-0.3 4.5-1.4 8.7-1.5 4.3-0.2 6.4-1.9-1.3 5.4-15.7 6.4z"/>
						</g>
						<path id="&lt;Path&gt;" class="s26" d="m354.4 222.9c1.2-1.5 3.1-3.3 6.4-5q5.3-2.6 8.7-1.3"/>
						<path id="&lt;Path&gt;" class="s26" d="m383.5 213q5.3-3 10.6-1c2.4 0.9 3.8 2 4.6 3"/>
					</g>
				</g>
			</g>
		</g>
	</g>
	<g id="Floor">
		<path id="&lt;Path&gt;" class="s8" d="m66 926h894"/>
	</g>
</svg>